<?xml version="1.0" encoding="utf-8"?>
<!-- Generator: Adobe Illustrator 24.3.0, SVG Export Plug-In . SVG Version: 6.00 Build 0)  -->
<svg version="1.1" id="Layer_1" xmlns="http://www.w3.org/2000/svg" xmlns:xlink="http://www.w3.org/1999/xlink" x="0px" y="0px"
	 viewBox="0 0 23.8 23.8" style="enable-background:new 0 0 23.8 23.8;" xml:space="preserve">
<style type="text/css">
	.st0{fill:#AA9FFF;}
</style>
<path class="st0" d="M8.7,2.7c1.3-0.6,3.1-0.5,3.1-0.5s1.8-0.1,3.1,0.5c0.5-0.4,0.9-0.8,1.1-1.4c0-0.1,0-0.1,0-0.2
	c-0.2-0.1-2.2-0.9-4.2-0.9c-1.9,0-3.4,0.5-4.2,0.9c0,0.1,0,0.1,0,0.2C7.8,1.9,8.2,2.4,8.7,2.7z"/>
<path class="st0" d="M21.5,5.1c-0.6-1-3.4-2-4.2-2.3c-0.4-0.5-0.7-1-0.8-1.2c-0.3,0.9-1.1,1.6-1.9,2v11.3c0,0.1-0.1,0.2-0.2,0.2
	s-0.2-0.1-0.2-0.2V3.8c-0.7,0.3-1.5,0.4-1.9,0.5l-0.3,0.1l-0.3-0.1c-0.4-0.1-1.2-0.2-1.9-0.5v11.1c0,0.1-0.1,0.2-0.2,0.2
	S9.2,15,9.2,14.8V3.6c-0.8-0.4-1.6-1-1.9-2C7.2,1.8,6.9,2.3,6.5,2.8C5.6,3.1,2.9,4.1,2.3,5.1C1.5,6.2,1.4,16.4,1.8,18.9
	c0,0,0.2,1.8,0.2,2.6C2,21.8,2.2,22,2.5,22l1.8,0c0.3,0,0.5-0.2,0.5-0.5c0-0.6,0.2-1.7,0.3-2c0.2-0.8,0.1-3.8,0.6-5.7
	c0,2.7-0.1,8.4-0.3,9.1c0,0.2,0,0.3,0.1,0.4c0.1,0.1,0.2,0.2,0.4,0.2h5.9h5.9c0.2,0,0.3-0.1,0.4-0.2s0.1-0.3,0.1-0.4
	C18,22.2,18,16.5,18,13.8c0.5,1.9,0.4,4.9,0.6,5.7c0.1,0.4,0.3,1.4,0.3,2c0,0.3,0.2,0.5,0.5,0.5l1.8,0c0.3,0,0.5-0.2,0.5-0.5
	c0-0.8,0.2-2.6,0.2-2.6C22.3,16.4,22.3,6.2,21.5,5.1z"/>
</svg>
